<svg width="260" height="265" viewBox="0 0 260 265" fill="none" xmlns="http://www.w3.org/2000/svg">
<path fill-rule="evenodd" clip-rule="evenodd" d="M93.239 0.941328C88.139 2.87533 83.409 7.17133 81.213 11.8633C80.107 14.2273 77.76 23.9023 75.998 33.3643L72.793 50.5683L67.647 52.2523C55.401 56.2603 47.168 61.7433 44.494 67.6733C40.908 75.6263 45.88 82.9493 58.953 88.9703C62.554 90.6293 65.668 92.1183 65.874 92.2813C66.08 92.4433 65.086 93.9583 63.664 95.6473C60.542 99.3583 59.566 103.94 60.263 111.623C60.968 119.398 64.188 126.264 69.41 131.127C73.81 135.225 80.925 149.293 79.278 150.64C78.85 150.99 66.35 157.057 51.5 164.121C21.785 178.256 18.184 180.377 12.004 187.384C1.985 198.745 0 206.489 0 234.222C0 254.574 0.0849998 255.491 2.28 258.748C3.534 260.608 5.672 262.693 7.03 263.381C8.965 264.36 35.577 264.634 129.8 264.645C261.107 264.661 253.509 264.999 257.602 258.961C259.259 256.516 259.542 253.846 259.829 237.924C260.234 215.496 259.147 207.563 254.315 197.673C247.93 184.606 243.893 181.486 215.333 167.538C201.707 160.884 188.183 154.389 185.279 153.105C182.376 151.821 180 150.399 180 149.946C180 147.798 186.44 134.053 187.822 133.251C193.568 129.92 198.774 119.885 199.656 110.44C200.143 105.223 199.867 103.148 198.179 99.3313C197.036 96.7493 195.404 94.3693 194.551 94.0413C192.029 93.0733 192.754 92.0503 196.827 90.8303C202.558 89.1133 212.678 82.1843 214.444 78.7673C215.3 77.1133 216 73.8543 216 71.5263C216 67.7753 215.449 66.7623 211.176 62.6433C206.602 58.2343 193.656 51.6603 189.548 51.6603C187.249 51.6603 186.437 49.0513 183.027 30.7213C179.53 11.9213 177.392 7.14633 170.723 3.23833C164.681 -0.302672 159.631 -0.828673 150.399 1.11933C137.866 3.76433 125.859 4.12633 115.5 2.17333C103.053 -0.173672 97.055 -0.505673 93.239 0.941328ZM110.5 10.2653C121.364 12.4453 137.293 12.4293 149.232 10.2263C161.197 8.01833 164.838 8.57333 168.924 13.2263C170.616 15.1533 172 17.0923 172 17.5353C172 17.9783 174.025 29.2843 176.5 42.6603C178.975 56.0363 181 67.0803 181 67.2013C181 67.3233 178.957 67.9373 176.46 68.5663C147.472 75.8653 116.618 76.1963 87.75 69.5183C79.435 67.5943 79.001 67.3613 79.015 64.8273C79.045 59.5813 79.782 59.3743 90.591 61.5733C104.833 64.4703 116.642 65.6423 131.679 65.6523C145.526 65.6603 148 64.9233 148 60.7893C148 57.1183 146.041 56.6603 130.334 56.6603C115.057 56.6603 98.205 54.8823 88.147 52.2093C85.202 51.4273 82.579 50.5733 82.318 50.3123C81.412 49.4053 88.117 16.4123 89.697 13.9993C93.269 8.54833 97.845 7.72633 110.5 10.2653ZM159.966 54.5823C155.136 55.5293 154 56.3883 154 59.0973C154 63.1173 156.203 64.0143 163.095 62.8003C169.741 61.6293 172 60.3453 172 57.7383C172 53.9083 168.325 52.9453 159.966 54.5823ZM70.698 62.9103C68.94 70.5283 68.943 71.2983 70.727 72.9133C73.145 75.1013 89.255 79.1993 102.946 81.1093C116.939 83.0603 143.198 83.0933 156.687 81.1753C168.439 79.5043 186.845 75.0333 188.862 73.3603C189.884 72.5123 190.081 70.7113 189.628 66.3743C189.032 60.6703 189.071 60.5473 191.259 61.2103C201.604 64.3443 208.732 69.7783 207.518 73.6053C205.841 78.8873 190.388 85.0523 169.419 88.8033C158.001 90.8463 153.363 91.1123 129.5 91.0983C106.044 91.0843 100.909 90.7923 90.376 88.8773C76.661 86.3843 66.595 83.4933 60 80.1543C49.141 74.6573 49.427 70.2163 61.015 64.4113C69.796 60.0123 71.425 59.7603 70.698 62.9103ZM94.5 98.1923C117.449 101.514 149.836 101.053 172.431 97.0833C176.794 96.3173 180.533 95.8603 180.742 96.0693C180.95 96.2773 178.202 102.271 174.636 109.389C167.139 124.349 165.502 125.873 156.276 126.48C147.08 127.085 145.4 126.383 142.541 120.742C139.117 113.983 135.883 111.66 129.9 111.66C125.977 111.66 124.438 112.214 121.709 114.611C119.86 116.234 117.522 119.393 116.513 121.632C114.361 126.404 112.601 127.059 103.485 126.478C99.118 126.2 96.126 125.418 94.261 124.066C92.565 122.837 88.856 116.914 84.647 108.717L77.795 95.3693L81.147 96.0573C82.991 96.4353 89 97.3963 94.5 98.1923ZM77.413 113.486C83.894 126.419 88.002 131.506 93.861 133.85C95.312 134.43 100.55 134.953 105.5 135.01C116.851 135.143 119.824 133.714 124.153 126.043C125.878 122.987 127.872 120.263 128.584 119.99C130.763 119.153 133.091 121.134 135.857 126.178C140.159 134.022 142.462 135.163 153.817 135.077C161.564 135.018 164.3 134.588 167.5 132.929C173.296 129.923 175.103 127.541 181.864 113.989C185.204 107.294 188.388 101.538 188.939 101.198C190.388 100.302 191.317 105.008 190.785 110.545C190.163 117.016 187.218 122.657 183 125.456C180.211 127.307 178.775 129.575 175.93 136.624C168.903 154.031 156.767 168.696 144.312 174.827C138.498 177.689 136.575 178.134 130 178.134C123.448 178.134 121.495 177.686 115.787 174.876C107.763 170.926 100.391 164.47 94.551 156.278C89.51 149.208 83.778 138.103 81.903 131.776C80.896 128.38 79.892 127.095 77.448 126.074C73.467 124.41 71.39 121.248 69.477 113.936C67.917 107.977 68.509 100.66 70.552 100.66C70.79 100.66 73.878 106.432 77.413 113.486ZM95.841 208.927C104.729 234.649 112 255.935 112 256.23C112 256.524 109.672 256.629 106.828 256.462L101.655 256.16L83.777 232.4L65.899 208.639L70.288 202.9C78.738 191.848 78.293 193.763 76.014 178.259C74.907 170.719 74 164.11 74 163.573C74 162.361 78.281 160.63 79.091 161.514C79.416 161.87 86.954 183.205 95.841 208.927ZM183.401 161.797C185.347 162.684 185.801 163.508 185.465 165.547C183.773 175.829 182.003 188.79 182.02 190.779C182.031 192.089 184.506 196.484 187.52 200.548C190.534 204.611 193 208.24 193 208.613C193 208.987 184.675 219.48 174.5 231.932C164.325 244.384 156 255.042 156 255.616C156 256.79 148.015 257.082 147.974 255.91C147.944 255.08 180.379 160.704 180.703 160.677C180.815 160.668 182.029 161.172 183.401 161.797ZM154.115 210.714L138.288 256.16L129.894 256.438L121.5 256.716L115.169 238.438C107.483 216.247 90.948 168.736 90.189 166.66C89.887 165.835 92.936 168.25 96.963 172.027C101.885 176.642 106.781 180.086 111.893 182.527C119.153 185.994 119.981 186.16 130.054 186.16C140.247 186.16 140.871 186.031 148.239 182.388C153.463 179.805 158.017 176.494 162.684 171.885C166.433 168.184 169.599 165.18 169.721 165.212C169.843 165.243 162.82 185.719 154.115 210.714ZM66.932 175.91C67.571 180.447 68.319 185.51 68.595 187.16C69.015 189.674 68.035 191.595 62.548 199.013C58.947 203.882 56 208.311 56 208.855C56 209.399 63.649 220.04 72.998 232.502C82.346 244.964 89.996 255.497 89.998 255.91C89.999 256.323 72.536 256.66 51.191 256.66C21.12 256.66 11.986 256.37 10.622 255.373C9.012 254.196 8.888 252.11 9.18 231.123C9.497 208.37 9.525 208.109 12.263 202.536C17.822 191.222 21.317 188.424 43.446 177.58C54.476 172.175 64.011 167.732 64.635 167.706C65.305 167.679 66.246 171.042 66.932 175.91ZM215.169 177.039C237.137 187.697 241.761 191.37 247.254 202.521L250.5 209.11L250.831 231.232C251.124 250.755 250.968 253.549 249.51 255.007C248.027 256.49 243.654 256.66 206.879 256.66C173.186 256.66 166.043 256.425 166.7 255.339C167.14 254.613 175.488 244.297 185.25 232.415C196.095 219.216 203 209.972 203 208.654C203 207.466 200.237 202.924 196.861 198.559L190.721 190.622L191.901 181.391C193.407 169.597 193.836 167.66 194.938 167.66C195.433 167.66 204.537 171.881 215.169 177.039ZM18.035 232.594C16.412 235.628 16.755 244.272 18.571 246.089C20.443 247.96 23.139 248.121 24.8 246.46C26.366 244.894 26.366 233.426 24.8 231.86C22.963 230.023 19.192 230.432 18.035 232.594ZM40.2 231.86C38.418 233.642 38.64 245.117 40.487 246.649C42.607 248.409 46.649 247.099 47.367 244.421C48.314 240.887 48.104 234.723 46.965 232.594C45.808 230.432 42.037 230.023 40.2 231.86ZM61.417 232.015C61.131 232.761 61.033 236.201 61.199 239.661C61.533 246.648 63.411 249.148 66.75 247.051C68.896 245.703 69.791 234.318 67.928 232.073C66.434 230.273 62.1 230.235 61.417 232.015ZM191.035 232.594C189.412 235.628 189.755 244.272 191.571 246.089C193.443 247.96 196.139 248.121 197.8 246.46C199.366 244.894 199.366 233.426 197.8 231.86C195.963 230.023 192.192 230.432 191.035 232.594ZM213.2 231.86C211.729 233.331 211.613 243.069 213.035 245.726C214.286 248.064 217.283 248.234 219.429 246.089C221.245 244.272 221.588 235.628 219.965 232.594C218.808 230.432 215.037 230.023 213.2 231.86ZM235.114 232.022C233.211 234.315 234.07 245.682 236.25 247.051C237.523 247.85 238.477 247.849 239.75 247.046C241.159 246.157 241.5 244.503 241.5 238.551C241.5 231.346 241.435 231.152 238.914 230.859C237.492 230.694 235.782 231.217 235.114 232.022Z" fill="black"/>
</svg>
