
<!-- Generator: Adobe Illustrator 23.0.3, SVG Export Plug-In . SVG Version: 6.00 Build 0)  -->
<svg version="1.1" id="Layer_2" xmlns="http://www.w3.org/2000/svg" xmlns:xlink="http://www.w3.org/1999/xlink" x="0px" y="0px"
	 viewBox="0 0 100 100" style="enable-background:new 0 0 100 100;" xml:space="preserve">
<path style="fill:none;stroke:#000000;stroke-width:2;stroke-linecap:round;stroke-linejoin:round;stroke-miterlimit:10;" d="
	M50,16.367L16.791,29.849v0.308c0,22.69,12.871,43.416,33.209,53.477h0h0c20.338-10.061,33.209-30.787,33.209-53.477v-0.308
	L50,16.367z"/>
<path style="fill:none;stroke:#000000;stroke-width:2;stroke-linecap:round;stroke-linejoin:round;stroke-miterlimit:10;" d="M59,46
	c0-4.971-4.029-9-9-9s-9,4.029-9,9c0,3.12,1.589,5.868,4,7.482V63h10v-9.518C57.411,51.868,59,49.12,59,46z"/>
<line style="fill:none;stroke:#000000;stroke-linecap:round;stroke-linejoin:round;stroke-miterlimit:10;" x1="50" y1="63" x2="50" y2="83.5"/>
<line style="fill:none;stroke:#000000;stroke-linecap:round;stroke-linejoin:round;stroke-miterlimit:10;" x1="50" y1="33.191" x2="50" y2="36.713"/>
<line style="fill:none;stroke:#000000;stroke-linecap:round;stroke-linejoin:round;stroke-miterlimit:10;" x1="50" y1="16.5" x2="50" y2="30.191"/>
<path style="fill:none;stroke:#000000;stroke-linecap:round;stroke-linejoin:round;stroke-miterlimit:10;" d="M61.696,72.099
	c11.265-10.188,18.03-24.571,18.489-40.241L50,19.604"/>
<path style="fill:none;stroke:#000000;stroke-linecap:round;stroke-linejoin:round;stroke-miterlimit:10;" d="M58.322,74.919
	c0.46-0.355,0.914-0.717,1.362-1.085"/>
<path style="fill:none;stroke:#000000;stroke-linecap:round;stroke-linejoin:round;stroke-miterlimit:10;" d="M40.466,23.475
	l-20.65,8.383c0.6,20.518,12.013,38.83,30.184,48.406"/>
<line style="fill:none;stroke:#000000;stroke-linecap:round;stroke-linejoin:round;stroke-miterlimit:10;" x1="43.091" y1="22.409" x2="42.46" y2="22.666"/>
<line style="fill:none;stroke:#000000;stroke-linecap:round;stroke-linejoin:round;stroke-miterlimit:10;" x1="46.924" y1="20.853" x2="45.079" y2="21.602"/>
</svg>