<svg width="256" height="256" viewBox="0 0 256 256" fill="none" xmlns="http://www.w3.org/2000/svg">
<path d="M30.85 39.2C28.1 40.2 25.7 42.25 24.15 44.9L22.75 47.25L22.6 126.9C22.55 179.35 22.65 207.25 23 208.45C23.75 211.25 26.15 214.25 28.85 215.85L31.25 217.25L76.4 217.4L121.5 217.5V214.25V211H77.5C29.15 211 31.35 211.15 29.75 208C29.1 206.7 29 197.25 29 128C29 41.7 28.8 47.4 32 45.75C33.25 45.1 37.05 45 58.35 45C86.4 45 85.35 44.9 89.15 48.85C90.75 50.5 91.95 53.05 96.15 63.8L101.3 76.75L162.25 77C210.35 77.2 223.5 77.4 224.35 77.9C226.8 79.25 226.75 78.65 227 115.5L227.25 150.25L230.4 150.4L233.55 150.55L233.4 114.9L233.25 79.25L231.85 76.9C230.3 74.25 227.9 72.2 225.15 71.2C223.6 70.65 212.25 70.55 164.45 70.5H105.7L101.3 59.35C95.9 45.6 94.2 43.2 87.65 40.1L84.75 38.75L58.75 38.65C37.9 38.55 32.4 38.65 30.85 39.2Z" fill="black"/>
<path d="M103.3 39.45C101.25 41.7 103.85 45.6 106.65 44.55C107.4 44.25 108.25 43.4 108.55 42.65C109.65 39.75 105.4 37.15 103.3 39.45Z" fill="black"/>
<path d="M116.7 38.9C114.6 40.3 114.95 43.65 117.35 44.55C120.15 45.6 122.75 41.7 120.7 39.45C119.85 38.5 117.75 38.2 116.7 38.9Z" fill="black"/>
<path d="M129 39.5C128.45 40.05 128 41.05 128 41.7C128 43.3 130.25 45.15 131.7 44.7C133.05 44.3 134.5 42.65 134.5 41.45C134.5 40.1 132.75 38.5 131.25 38.5C130.55 38.5 129.55 38.95 129 39.5Z" fill="black"/>
<path d="M141.85 39.4C139.95 41.5 141.3 44.65 144 44.65C145.9 44.65 147 43.5 147 41.5C147 38.85 143.55 37.5 141.85 39.4Z" fill="black"/>
<path d="M154.5 39.5C153.95 40.05 153.5 40.95 153.5 41.45C153.5 42.65 154.95 44.3 156.3 44.7C157.75 45.15 160 43.3 160 41.7C160 40.15 158.35 38.5 156.75 38.5C156.05 38.5 155.05 38.95 154.5 39.5Z" fill="black"/>
<path d="M167.3 39.45C165.25 41.7 167.85 45.6 170.65 44.55C171.4 44.25 172.25 43.4 172.55 42.65C173.65 39.75 169.4 37.15 167.3 39.45Z" fill="black"/>
<path d="M180.7 38.9C178.6 40.3 178.95 43.65 181.35 44.55C184.15 45.6 186.75 41.7 184.7 39.45C183.85 38.5 181.75 38.2 180.7 38.9Z" fill="black"/>
<path d="M193 39.5C192.45 40.05 192 41.05 192 41.7C192 43.3 194.25 45.15 195.7 44.7C197.05 44.3 198.5 42.65 198.5 41.45C198.5 40.1 196.75 38.5 195.25 38.5C194.55 38.5 193.55 38.95 193 39.5Z" fill="black"/>
<path d="M205.85 39.4C203.95 41.5 205.3 44.65 208 44.65C209.9 44.65 211 43.5 211 41.5C211 38.85 207.55 37.5 205.85 39.4Z" fill="black"/>
<path d="M218.5 39.5C217.95 40.05 217.5 40.95 217.5 41.45C217.5 42.65 218.95 44.3 220.3 44.7C221.75 45.15 224 43.3 224 41.7C224 40.15 222.35 38.5 220.75 38.5C220.05 38.5 219.05 38.95 218.5 39.5Z" fill="black"/>
<path d="M228.05 49.35C226.85 50.85 227.05 52.25 228.6 53.6C229.95 54.75 231.25 54.75 232.5 53.5C234.45 51.55 233.05 48 230.3 48C229.55 48 228.65 48.55 228.05 49.35Z" fill="black"/>
<path d="M228.25 61.7C227.7 62.1 227.35 63 227.35 64C227.35 66.75 230.85 68.1 232.65 66.1C235.25 63.25 231.4 59.4 228.25 61.7Z" fill="black"/>
<path d="M42.5499 65.3C41.1999 67 41.2499 67.8 42.7499 69.25C44.1999 70.75 44.9999 70.8 46.6999 69.45C48.2499 68.2 48.3999 66.4 46.9999 65C45.5999 63.6 43.7999 63.75 42.5499 65.3Z" fill="black"/>
<path d="M42.2999 78.1C41.2999 79.5 41.2999 80.5 42.2999 81.9C43.4499 83.6 46.4499 83.25 47.4999 81.35C48.1499 80.15 48.1499 79.85 47.4999 78.6C46.4499 76.75 43.4499 76.4 42.2999 78.1Z" fill="black"/>
<path d="M42.7499 90.75C41.2499 92.2 41.1999 93 42.5499 94.7C43.7999 96.25 45.5999 96.4 46.9999 95C48.3999 93.6 48.2499 91.8 46.6999 90.55C44.9999 89.2 44.1999 89.25 42.7499 90.75Z" fill="black"/>
<path d="M209.3 90.55C207.75 91.8 207.6 93.6 209 95C210.4 96.4 212.2 96.25 213.45 94.7C214.8 93 214.75 92.2 213.25 90.75C211.8 89.25 211 89.2 209.3 90.55Z" fill="black"/>
<path d="M42.5 103.5C41.95 104.05 41.5 104.95 41.5 105.45C41.5 106.65 42.95 108.3 44.3 108.7C45.75 109.15 48 107.3 48 105.7C48 104.15 46.35 102.5 44.75 102.5C44.05 102.5 43.05 102.95 42.5 103.5Z" fill="black"/>
<path d="M209 103.5C208.45 104.05 208 105.05 208 105.7C208 107.3 210.25 109.15 211.7 108.7C213.05 108.3 214.5 106.65 214.5 105.45C214.5 104.1 212.75 102.5 211.25 102.5C210.55 102.5 209.55 102.95 209 103.5Z" fill="black"/>
<path d="M43.65 115.5C41.5 116.4 40.9 118.9 42.5 120.5C44.45 122.45 48 121.05 48 118.3C48 117.55 47.45 116.65 46.7 116.05C45.2 114.9 45.2 114.9 43.65 115.5Z" fill="black"/>
<path d="M209.35 116.05C208.55 116.65 208 117.55 208 118.3C208 119.85 209.65 121.5 211.25 121.5C212.75 121.5 214.5 119.9 214.5 118.55C214.5 117.35 213.05 115.7 211.7 115.3C211.05 115.1 210.2 115.35 209.35 116.05Z" fill="black"/>
<path d="M42.5499 129.3C41.1999 131 41.2499 131.8 42.7499 133.25C44.1999 134.75 44.9999 134.8 46.6999 133.45C48.2499 132.2 48.3999 130.4 46.9999 129C45.5999 127.6 43.7999 127.75 42.5499 129.3Z" fill="black"/>
<path d="M209 129C207.6 130.4 207.85 132.35 209.6 133.65C210.75 134.5 211.15 134.6 212.25 134.1C212.95 133.8 213.8 132.95 214.1 132.25C214.6 131.15 214.5 130.75 213.65 129.6C212.35 127.85 210.4 127.6 209 129Z" fill="black"/>
<path d="M42.2999 142.1C41.2999 143.5 41.2999 144.5 42.2999 145.9C43.4499 147.6 46.4499 147.25 47.4999 145.35C48.1499 144.15 48.1499 143.85 47.4999 142.6C46.4499 140.75 43.4499 140.4 42.2999 142.1Z" fill="black"/>
<path d="M208.8 142.1C208.35 142.7 208 143.55 208 144C208 144.45 208.35 145.3 208.8 145.9C209.95 147.6 212.95 147.25 214 145.35C214.65 144.15 214.65 143.85 214 142.6C212.95 140.75 209.95 140.4 208.8 142.1Z" fill="black"/>
<path d="M138.75 151.7C137.35 152.3 135.5 153.7 134.55 154.75C131.05 158.8 131.25 155.6 131.25 203.25C131.25 242.8 131.3 246.4 132.1 248.05C133.35 250.75 135.3 252.85 137.95 254.4L140.25 255.75H193.5H246.75L248.75 254.65C251.1 253.4 253.5 250.95 254.8 248.5C255.7 246.85 255.75 245.05 255.75 216C255.75 185.35 255.75 185.25 254.65 183.2C253.4 180.85 250.4 178 248.2 177.1C246.9 176.55 246.6 176.05 246.1 173.6C245.3 169.8 242.75 166.4 239.4 164.65L236.75 163.25L206.4 163.1L176.05 162.95L174 159.1C171.4 154.3 170.4 153.15 167.25 151.7C164.85 150.55 164.3 150.5 153 150.5C141.75 150.5 141.15 150.55 138.75 151.7ZM165.35 157.75C165.95 158.2 167.75 161 169.3 164L172.15 169.5H203.35C236.9 169.5 237 169.5 238.7 172.1C239.1 172.7 239.6 173.85 239.75 174.6L240.1 176H191.1C148.85 176 141.85 176.1 140 176.75C138.85 177.15 137.8 177.5 137.7 177.5C137.6 177.5 137.5 174.1 137.5 170C137.5 161.75 137.9 159.9 140.25 158.1C141.6 157.05 142.1 157 152.95 157C162.3 157 164.45 157.15 165.35 157.75ZM247.6 184.4L249.25 186V216V246L247.6 247.6L246 249.25L194.1 249.4C142.8 249.5 142.25 249.5 140.6 248.5C137.45 246.6 137.5 246.95 137.5 216C137.5 185.05 137.45 185.4 140.6 183.5C142.25 182.5 142.8 182.5 194.1 182.6L246 182.75L247.6 184.4Z" fill="black"/>
<path d="M42.7499 154.75C41.2499 156.2 41.1999 157 42.5499 158.7C43.7999 160.25 45.5999 160.4 46.9999 159C48.3999 157.6 48.2499 155.8 46.6999 154.55C44.9999 153.2 44.1999 153.25 42.7499 154.75Z" fill="black"/>
<path d="M42.5 167.5C41.95 168.05 41.5 168.95 41.5 169.45C41.5 170.65 42.95 172.3 44.3 172.7C45.75 173.15 48 171.3 48 169.7C48 168.15 46.35 166.5 44.75 166.5C44.05 166.5 43.05 166.95 42.5 167.5Z" fill="black"/>
<path d="M43.65 179.5C41.5 180.4 40.9 182.9 42.5 184.5C44.45 186.45 48 185.05 48 182.3C48 181.55 47.45 180.65 46.7 180.05C45.2 178.9 45.2 178.9 43.65 179.5Z" fill="black"/>
<path d="M42.5499 193.3C41.1999 195 41.2499 195.8 42.7499 197.25C44.1999 198.75 44.9999 198.8 46.6999 197.45C48.2499 196.2 48.3999 194.4 46.9999 193C45.5999 191.6 43.7999 191.75 42.5499 193.3Z" fill="black"/>
<path d="M55.5 193C54.95 193.55 54.5 194.55 54.5 195.25C54.5 196.75 56.1 198.5 57.45 198.5C58.65 198.5 60.3 197.05 60.7 195.7C61.15 194.25 59.3 192 57.7 192C57.05 192 56.05 192.45 55.5 193Z" fill="black"/>
<path d="M68.0499 193.35C66.8499 194.85 67.0499 196.25 68.5999 197.6C69.9499 198.75 71.2499 198.75 72.4999 197.5C74.4499 195.55 73.0499 192 70.2999 192C69.5499 192 68.6499 192.55 68.0499 193.35Z" fill="black"/>
<path d="M81 193C79.6 194.4 79.85 196.35 81.6 197.65C82.75 198.5 83.15 198.6 84.25 198.1C84.95 197.8 85.8 196.95 86.1 196.25C86.6 195.15 86.5 194.75 85.65 193.6C84.35 191.85 82.4 191.6 81 193Z" fill="black"/>
<path d="M94.1 192.8C92.4 193.95 92.75 196.95 94.65 198C95.85 198.65 96.15 198.65 97.4 198C99.25 196.95 99.6 193.95 97.9 192.8C96.5 191.8 95.5 191.8 94.1 192.8Z" fill="black"/>
<path d="M106.55 193.3C105.2 195 105.25 195.8 106.75 197.25C108.2 198.75 109 198.8 110.7 197.45C112.25 196.2 112.4 194.4 111 193C109.6 191.6 107.8 191.75 106.55 193.3Z" fill="black"/>
<path d="M119.5 193C118.95 193.55 118.5 194.55 118.5 195.25C118.5 196.75 120.1 198.5 121.45 198.5C122.65 198.5 124.3 197.05 124.7 195.7C125.15 194.25 123.3 192 121.7 192C121.05 192 120.05 192.45 119.5 193Z" fill="black"/>
</svg>
