<svg width="321" height="299" viewBox="0 0 321 299" fill="none" xmlns="http://www.w3.org/2000/svg">
<path fill-rule="evenodd" clip-rule="evenodd" d="M10.946 2.75171C7.34717 4.56539 4.54848 7.17156 2.74232 10.3953L0 15.2873V125.356V235.424L2.74232 240.316C4.54848 243.539 7.34717 246.146 10.946 247.959L16.4086 250.711H100.628H184.848L182.009 244.29L179.171 237.87L98.0435 237.258C19.5246 236.666 16.8595 236.571 15.1771 234.273C13.7141 232.275 13.4384 217.982 13.4384 144.078V56.2571H146.388H279.338V97.5951V138.932L284.885 141.622C287.935 143.101 290.968 144.312 291.625 144.312C292.383 144.312 292.81 120.824 292.797 79.7995C292.777 15.2946 292.777 15.2873 290.034 10.3953C288.228 7.17156 285.429 4.56539 281.831 2.75171L276.368 0H146.388H16.4086L10.946 2.75171ZM277.599 16.4381C278.806 18.0854 279.338 22.2949 279.338 30.1966V41.5813H146.388H13.4384L13.4567 30.2688C13.4678 24.0475 13.8807 18.3594 14.3757 17.6293C17.1291 13.569 19.3065 13.5066 148.019 13.7867C272.986 14.0582 275.899 14.1181 277.599 16.4381ZM22.8184 23.0275C18.5199 27.7678 21.6188 34.2435 28.1866 34.2435C33.9421 34.2435 36.443 26.8016 32.0281 22.8147C29.0885 20.1596 25.3401 20.2464 22.8184 23.0275ZM43.6492 23.0275C39.5039 27.599 42.7511 34.2435 49.1314 34.2435C53.0464 34.2435 55.1001 32.1204 55.1001 28.0735C55.1001 21.7898 47.7198 18.5379 43.6492 23.0275ZM64.9029 23.2366C63.555 24.5819 62.4522 26.6977 62.4522 27.939C62.4522 32.9067 70.9144 36.3152 74.4606 32.7759C76.8549 30.3862 76.2777 23.5081 73.5611 22.0565C70.0432 20.178 67.6391 20.5057 64.9029 23.2366ZM239.515 147.222C236.819 148.141 229.663 151.196 223.612 154.012C212.384 159.237 199.246 163.755 187.744 166.344L181.311 167.792L181.32 175.314C181.36 204.656 190.126 234.656 205.497 258.049C217.933 276.975 245.894 301.021 252.959 298.865C257.196 297.572 269.776 288.052 278.023 279.899C287.857 270.176 298.152 256.428 304.176 244.978C313.788 226.705 321 197.325 321 176.443V167.918L307.828 164.52C300.582 162.652 287.211 157.802 278.113 153.743C263.904 147.405 260.361 146.306 252.993 145.958C247.876 145.716 242.438 146.226 239.515 147.222ZM271.374 166.047C278.113 169.103 288.843 173.359 295.219 175.507L306.812 179.412L306.505 185.404C304.676 221.21 285.156 258.149 256.886 279.303L250.975 283.725L245.245 279.812C217.447 260.828 197.436 222.848 195.816 185.995L195.525 179.368L205.879 176.137C211.573 174.36 221.747 170.283 228.486 167.076C248.364 157.619 252.561 157.517 271.374 166.047Z" fill="black"/>
</svg>
